<svg id="visual" viewBox="0 0 3840 2160" width="3840" height="2160" xmlns="http://www.w3.org/2000/svg" xmlns:xlink="http://www.w3.org/1999/xlink" version="1.1"><path d="M0 1540L91.5 1531.2C183 1522.3 366 1504.7 548.8 1493.2C731.7 1481.7 914.3 1476.3 1097.2 1448.2C1280 1420 1463 1369 1645.8 1336.3C1828.7 1303.7 2011.3 1289.3 2194.2 1284C2377 1278.7 2560 1282.3 2742.8 1322.5C2925.7 1362.7 3108.3 1439.3 3291.2 1489C3474 1538.7 3657 1561.3 3748.5 1572.7L3840 1584L3840 2161L3748.5 2161C3657 2161 3474 2161 3291.2 2161C3108.3 2161 2925.7 2161 2742.8 2161C2560 2161 2377 2161 2194.2 2161C2011.3 2161 1828.7 2161 1645.8 2161C1463 2161 1280 2161 1097.2 2161C914.3 2161 731.7 2161 548.8 2161C366 2161 183 2161 91.5 2161L0 2161Z" fill="#69f7fa"></path><path d="M0 1524L91.5 1533.2C183 1542.3 366 1560.7 548.8 1590C731.7 1619.3 914.3 1659.7 1097.2 1636.3C1280 1613 1463 1526 1645.8 1487.3C1828.7 1448.7 2011.3 1458.3 2194.2 1473.2C2377 1488 2560 1508 2742.8 1544C2925.7 1580 3108.3 1632 3291.2 1657.5C3474 1683 3657 1682 3748.5 1681.5L3840 1681L3840 2161L3748.5 2161C3657 2161 3474 2161 3291.2 2161C3108.3 2161 2925.7 2161 2742.8 2161C2560 2161 2377 2161 2194.2 2161C2011.3 2161 1828.7 2161 1645.8 2161C1463 2161 1280 2161 1097.2 2161C914.3 2161 731.7 2161 548.8 2161C366 2161 183 2161 91.5 2161L0 2161Z" fill="#3ce1f9"></path><path d="M0 1674L91.5 1670.7C183 1667.3 366 1660.7 548.8 1653.7C731.7 1646.7 914.3 1639.3 1097.2 1651.8C1280 1664.3 1463 1696.7 1645.8 1687C1828.7 1677.3 2011.3 1625.7 2194.2 1605.2C2377 1584.7 2560 1595.3 2742.8 1625.7C2925.7 1656 3108.3 1706 3291.2 1702.7C3474 1699.3 3657 1642.7 3748.5 1614.3L3840 1586L3840 2161L3748.5 2161C3657 2161 3474 2161 3291.2 2161C3108.3 2161 2925.7 2161 2742.8 2161C2560 2161 2377 2161 2194.2 2161C2011.3 2161 1828.7 2161 1645.8 2161C1463 2161 1280 2161 1097.2 2161C914.3 2161 731.7 2161 548.8 2161C366 2161 183 2161 91.5 2161L0 2161Z" fill="#00cbf6"></path><path d="M0 1753L91.5 1752.7C183 1752.3 366 1751.7 548.8 1779.2C731.7 1806.7 914.3 1862.3 1097.2 1880.7C1280 1899 1463 1880 1645.8 1859.7C1828.7 1839.3 2011.3 1817.7 2194.2 1816.7C2377 1815.7 2560 1835.3 2742.8 1844.8C2925.7 1854.3 3108.3 1853.7 3291.2 1836.3C3474 1819 3657 1785 3748.5 1768L3840 1751L3840 2161L3748.5 2161C3657 2161 3474 2161 3291.2 2161C3108.3 2161 2925.7 2161 2742.8 2161C2560 2161 2377 2161 2194.2 2161C2011.3 2161 1828.7 2161 1645.8 2161C1463 2161 1280 2161 1097.2 2161C914.3 2161 731.7 2161 548.8 2161C366 2161 183 2161 91.5 2161L0 2161Z" fill="#00b3f0"></path><path d="M0 2068L91.5 2056.3C183 2044.7 366 2021.3 548.8 2002.7C731.7 1984 914.3 1970 1097.2 1955.2C1280 1940.3 1463 1924.7 1645.8 1940.3C1828.7 1956 2011.3 2003 2194.2 2014.3C2377 2025.7 2560 2001.3 2742.8 1984.5C2925.7 1967.7 3108.3 1958.3 3291.2 1950.7C3474 1943 3657 1937 3748.5 1934L3840 1931L3840 2161L3748.5 2161C3657 2161 3474 2161 3291.2 2161C3108.3 2161 2925.7 2161 2742.8 2161C2560 2161 2377 2161 2194.2 2161C2011.3 2161 1828.7 2161 1645.8 2161C1463 2161 1280 2161 1097.2 2161C914.3 2161 731.7 2161 548.8 2161C366 2161 183 2161 91.5 2161L0 2161Z" fill="#039be5"></path></svg>