<svg id="visual" viewBox="0 0 900 600" width="900" height="600" xmlns="http://www.w3.org/2000/svg" xmlns:xlink="http://www.w3.org/1999/xlink" version="1.1"><path d="M0 354L21.5 363.8C43 373.7 86 393.3 128.8 398.7C171.7 404 214.3 395 257.2 400C300 405 343 424 385.8 420C428.7 416 471.3 389 514.2 380.7C557 372.3 600 382.7 642.8 384C685.7 385.3 728.3 377.7 771.2 379.7C814 381.7 857 393.3 878.5 399.2L900 405L900 601L878.5 601C857 601 814 601 771.2 601C728.3 601 685.7 601 642.8 601C600 601 557 601 514.2 601C471.3 601 428.7 601 385.8 601C343 601 300 601 257.2 601C214.3 601 171.7 601 128.8 601C86 601 43 601 21.5 601L0 601Z" fill="#57c3f5"></path><path d="M0 452L21.5 446.3C43 440.7 86 429.3 128.8 430.3C171.7 431.3 214.3 444.7 257.2 446.2C300 447.7 343 437.3 385.8 438.7C428.7 440 471.3 453 514.2 447.7C557 442.3 600 418.7 642.8 416.3C685.7 414 728.3 433 771.2 446.8C814 460.7 857 469.3 878.5 473.7L900 478L900 601L878.5 601C857 601 814 601 771.2 601C728.3 601 685.7 601 642.8 601C600 601 557 601 514.2 601C471.3 601 428.7 601 385.8 601C343 601 300 601 257.2 601C214.3 601 171.7 601 128.8 601C86 601 43 601 21.5 601L0 601Z" fill="#46b9f1"></path><path d="M0 487L21.5 488.2C43 489.3 86 491.7 128.8 489C171.7 486.3 214.3 478.7 257.2 480.5C300 482.3 343 493.7 385.8 495.8C428.7 498 471.3 491 514.2 488.7C557 486.3 600 488.7 642.8 485C685.7 481.3 728.3 471.7 771.2 475C814 478.3 857 494.7 878.5 502.8L900 511L900 601L878.5 601C857 601 814 601 771.2 601C728.3 601 685.7 601 642.8 601C600 601 557 601 514.2 601C471.3 601 428.7 601 385.8 601C343 601 300 601 257.2 601C214.3 601 171.7 601 128.8 601C86 601 43 601 21.5 601L0 601Z" fill="#35afed"></path><path d="M0 541L21.5 533.7C43 526.3 86 511.7 128.8 508.8C171.7 506 214.3 515 257.2 519.8C300 524.7 343 525.3 385.8 518.3C428.7 511.3 471.3 496.7 514.2 493C557 489.3 600 496.7 642.8 497.2C685.7 497.7 728.3 491.3 771.2 491.5C814 491.7 857 498.3 878.5 501.7L900 505L900 601L878.5 601C857 601 814 601 771.2 601C728.3 601 685.7 601 642.8 601C600 601 557 601 514.2 601C471.3 601 428.7 601 385.8 601C343 601 300 601 257.2 601C214.3 601 171.7 601 128.8 601C86 601 43 601 21.5 601L0 601Z" fill="#21a5e9"></path><path d="M0 558L21.5 558.5C43 559 86 560 128.8 556.8C171.7 553.7 214.3 546.3 257.2 542.8C300 539.3 343 539.7 385.8 542.7C428.7 545.7 471.3 551.3 514.2 555.5C557 559.7 600 562.3 642.8 564.3C685.7 566.3 728.3 567.7 771.2 561.5C814 555.3 857 541.7 878.5 534.8L900 528L900 601L878.5 601C857 601 814 601 771.2 601C728.3 601 685.7 601 642.8 601C600 601 557 601 514.2 601C471.3 601 428.7 601 385.8 601C343 601 300 601 257.2 601C214.3 601 171.7 601 128.8 601C86 601 43 601 21.5 601L0 601Z" fill="#039be5"></path></svg>